<svg version="1.1" id="Layer_1" xmlns="http://www.w3.org/2000/svg" xmlns:xlink="http://www.w3.org/1999/xlink" x="0px" y="0px"
	 width="100%" viewBox="0 0 1024 704" enable-background="new 0 0 1024 704" xml:space="preserve">
<path fill="#000000" opacity="1.000000" stroke="none" 
	d="
M503.000000,600.049072 
	C465.167877,600.006470 427.830048,600.356750 390.505188,599.813599 
	C350.677734,599.234131 310.849060,599.571167 271.026184,599.023193 
	C239.878342,598.594604 208.735535,597.780884 177.592117,597.067261 
	C171.435211,596.926147 165.284790,596.478760 159.133698,596.131226 
	C158.020508,596.068359 156.747147,596.228271 155.883408,594.537048 
	C158.112183,592.936340 160.750244,593.131531 163.225784,593.021973 
	C189.026596,591.879211 214.834045,590.961975 240.662201,590.678406 
	C265.985352,590.400330 291.322601,590.447693 316.626129,589.563904 
	C353.947357,588.260498 391.275116,589.150513 428.593292,588.471680 
	C434.499084,588.364197 440.184631,587.520264 445.199615,584.013062 
	C447.576172,582.351013 450.290955,581.363586 453.221222,581.792419 
	C462.567688,583.160400 470.489349,579.028625 475.574738,572.469604 
	C490.411499,553.333557 497.429871,531.501221 493.489410,507.012909 
	C492.775177,502.574188 491.161438,498.337219 487.474121,495.229218 
	C481.444977,490.147339 477.703400,483.555206 474.993256,476.238190 
	C471.989960,468.129517 471.472015,467.996277 463.103729,471.764801 
	C462.275543,469.536316 460.322723,468.646271 458.243286,468.562775 
	C456.994568,464.700043 461.763428,465.059418 461.822144,461.905853 
	C457.302032,459.456177 452.919220,465.100525 448.524078,462.764374 
	C444.449951,460.598846 439.528046,460.624664 435.939148,457.414581 
	C438.532379,452.583588 444.616577,449.505188 450.903259,451.085114 
	C455.144073,452.150879 459.337250,451.598785 463.365601,452.430481 
	C464.231598,451.323853 464.022400,450.200104 463.687714,449.366364 
	C459.786621,439.648010 453.031982,432.270752 444.276367,426.777435 
	C442.038940,425.373627 439.491058,426.406799 437.397797,428.232605 
	C434.171753,431.046417 432.249847,434.723083 430.180206,438.340973 
	C426.879456,444.110992 423.174774,445.271515 417.385254,442.013428 
	C413.919128,440.062836 410.631897,437.730225 407.496094,435.273346 
	C403.669556,432.275330 399.804321,430.962585 395.021027,432.915771 
	C389.455627,435.188232 383.863129,435.918060 378.173523,432.790009 
	C375.472870,431.305206 373.009338,432.340332 371.445801,435.134491 
	C370.375031,437.048035 369.131287,438.766296 366.884003,439.524048 
	C364.877899,440.200470 362.679779,439.994141 362.237244,438.027222 
	C361.361847,434.136078 358.359497,433.445465 355.447784,432.286652 
	C352.627716,431.164307 349.462402,430.253235 350.737701,425.170410 
	C342.598907,428.594269 336.195801,426.738312 329.939270,422.179626 
	C327.240234,420.213043 323.475067,419.931549 322.108032,424.775848 
	C321.762756,425.999390 320.978210,427.223785 320.079590,428.136932 
	C318.755463,429.482452 317.037140,430.351288 315.113617,429.340790 
	C313.233276,428.352936 313.654327,426.502075 313.873596,424.890442 
	C314.048553,423.604370 314.541443,422.361542 314.883118,421.135773 
	C313.219452,419.719727 311.346222,419.434357 309.585083,419.500275 
	C305.035095,419.670624 301.158813,418.532745 297.705841,415.358856 
	C295.449463,413.284821 292.267944,413.639160 289.571075,414.433228 
	C285.473541,415.639709 280.945251,415.613556 277.392792,418.545959 
	C276.105988,419.608185 274.561737,419.444885 273.239960,418.396027 
	C270.907471,416.545166 272.293274,414.182556 272.622375,411.516602 
	C267.864532,413.444702 265.768005,410.246918 263.635040,406.939880 
	C260.087311,411.336334 254.753723,411.256287 250.311478,413.064209 
	C247.563248,414.182739 245.589737,412.766541 246.227554,409.051575 
	C246.764587,405.923645 245.473282,402.263580 249.673553,400.700317 
	C247.953873,396.147705 244.001740,395.891724 240.535645,395.330841 
	C234.963562,394.429169 229.272263,394.255035 223.707397,393.320557 
	C217.604660,392.295776 211.706024,390.529755 206.900513,386.226501 
	C205.236710,384.736694 203.071045,384.425568 200.867065,384.150360 
	C193.970444,383.289093 187.663345,381.671417 186.315979,373.182617 
	C185.761017,369.686218 182.052032,370.758392 179.968155,370.000977 
	C178.891708,367.323334 182.226364,367.618500 182.175827,365.677734 
	C181.983047,365.386139 181.789642,364.903076 181.440567,364.598389 
	C179.890350,363.245453 177.007492,362.076996 178.600357,359.675201 
	C180.195984,357.269226 183.160110,358.209137 185.467972,359.240265 
	C187.945038,360.346985 190.003601,362.873322 193.056656,361.245239 
	C193.888077,360.119080 193.496109,359.187805 192.914841,358.349365 
	C191.251816,355.950531 191.785507,354.260406 194.553741,353.438629 
	C199.511047,351.966888 202.063171,348.890900 201.839340,343.546661 
	C201.729797,340.931000 203.522522,339.766113 205.960159,339.409027 
	C208.716217,339.005341 210.315445,337.865784 209.052277,334.699036 
	C208.263412,332.721313 208.736420,330.767212 209.929932,329.275299 
	C209.153229,326.857727 204.856873,326.735474 206.422333,323.691589 
	C207.879898,320.857483 210.995270,320.338409 213.891220,321.018921 
	C217.809113,321.939575 221.214767,322.014893 224.608414,319.176544 
	C226.357361,317.713745 229.137573,318.714233 231.452347,318.761017 
	C239.743408,318.928528 241.915619,316.983948 242.605560,308.649567 
	C242.701706,307.488190 242.644684,306.311890 242.777634,305.156219 
	C243.041565,302.862213 244.527481,301.585632 246.648773,301.141388 
	C248.750885,300.701141 250.147751,301.841400 251.028610,303.658813 
	C251.451843,304.532074 251.422714,305.653168 252.627121,306.260590 
	C255.103180,306.453125 255.945892,303.979034 257.601013,302.774750 
	C260.564362,300.618591 263.338409,299.965973 265.772064,303.403351 
	C267.458252,305.784973 269.667114,306.862457 272.576813,306.835724 
	C275.550171,306.808380 277.922058,308.213593 280.217560,310.064880 
	C283.200989,312.470978 286.199738,313.347687 288.067780,308.628845 
	C289.015869,306.233795 290.707031,305.372467 293.260956,306.284790 
	C294.992645,306.903412 296.801697,307.212585 298.444550,306.438904 
	C299.164429,305.803528 299.119019,305.155701 298.904297,304.501343 
	C296.412476,296.907379 298.245331,293.968658 306.251465,292.794342 
	C307.236816,292.649811 308.251617,292.714783 309.242218,292.595306 
	C311.587891,292.312439 314.241760,292.014679 315.064850,289.500671 
	C315.902557,286.941864 313.169769,286.360840 311.634399,285.302399 
	C309.420471,283.776123 309.484619,282.111053 311.085236,280.291565 
	C313.281982,277.794373 312.697327,275.914307 310.081451,274.152588 
	C306.788391,271.934875 306.286285,268.768677 307.838867,265.349640 
	C309.316040,262.096619 311.813080,260.860199 315.566071,261.491394 
	C319.670807,262.181824 320.861206,260.591431 319.626312,255.603149 
	C317.921631,248.716904 321.712311,242.505997 320.455811,235.422287 
	C326.999542,238.066055 327.013031,238.096695 333.504425,235.241333 
	C336.383698,233.974823 339.258850,234.038162 342.299255,234.548050 
	C344.574432,234.929626 347.362518,235.116287 348.379700,232.440048 
	C349.476013,229.555588 347.088409,228.291855 344.883148,227.323196 
	C341.525604,225.848419 340.707031,223.380753 342.735687,220.519455 
	C344.888458,217.483047 344.445068,214.862946 343.026733,211.719452 
	C339.640198,204.214020 340.117279,203.042587 347.217072,199.200516 
	C349.314087,198.065735 350.958923,196.501434 350.437866,194.118530 
	C349.366150,189.217316 351.354156,187.181396 355.990723,187.425644 
	C357.756012,181.196625 357.863342,181.154297 363.931885,182.898224 
	C365.849640,183.449326 367.785004,183.978668 369.745880,184.331467 
	C373.503601,185.007538 375.403839,183.315323 375.603577,179.526627 
	C375.730957,177.110703 383.277496,169.256897 385.652863,169.040863 
	C388.077698,168.820312 389.437408,170.479218 390.167908,172.334671 
	C391.619293,176.021179 394.355255,177.477661 398.020508,178.379974 
	C403.036072,179.614761 408.184113,181.047714 409.996307,187.110519 
	C411.147766,186.006683 410.995758,183.785172 412.936249,184.117447 
	C414.768494,184.431183 414.873566,186.147537 415.139160,187.626648 
	C415.988464,192.356934 421.873962,197.399673 427.083740,197.802521 
	C425.487610,192.152802 421.053528,187.402313 421.890869,181.044174 
	C422.042969,179.889267 422.125763,178.722794 422.332123,177.578171 
	C422.511993,176.580429 422.854523,175.571472 424.010254,175.338715 
	C425.456146,175.047516 426.060577,176.098557 426.605164,177.172012 
	C427.332916,178.606567 427.093872,181.039169 428.991699,181.258896 
	C432.056854,181.613754 435.232025,181.494751 438.305664,181.121979 
	C440.153534,180.897842 440.677887,179.248871 440.682678,177.305328 
	C440.689392,174.558960 442.794006,173.124130 445.062134,173.879044 
	C449.832764,175.466827 450.439117,172.108231 451.418091,169.166428 
	C453.174438,163.888733 453.383392,163.724625 457.875702,166.862473 
	C459.189667,167.780289 460.577576,168.132141 462.066620,168.259872 
	C465.299866,168.537155 467.815430,169.588364 468.770966,173.128357 
	C469.339722,175.235672 471.178680,176.060379 473.209198,176.716827 
	C475.884521,177.581726 478.552094,178.619003 481.010620,179.968979 
	C484.183167,181.711090 486.813568,183.501907 490.307098,180.017746 
	C492.498138,177.832581 493.867188,180.444153 494.240997,182.449341 
	C494.798340,185.439087 496.206146,187.146271 499.294037,187.762848 
	C502.823151,188.467529 504.007446,191.662064 505.571136,194.414062 
	C507.357758,197.558395 508.710388,200.808807 513.758728,199.973724 
	C517.189270,199.406250 517.609863,202.502762 516.549194,205.211563 
	C514.898743,209.426590 516.286255,210.294632 520.492859,212.325836 
	C526.478088,215.215866 530.161499,215.186111 534.669250,210.501312 
	C536.471497,208.628235 539.448120,210.403000 541.728333,211.383438 
	C544.961304,212.773529 548.183105,214.162598 551.804688,213.897934 
	C555.819336,213.604538 557.455261,211.174484 555.997253,207.442993 
	C555.257751,205.550476 554.304626,203.727234 555.021667,201.693802 
	C556.071594,198.716614 557.953857,196.754105 560.862976,199.524033 
	C562.985046,201.544525 564.488892,201.406403 566.946899,200.160355 
	C571.195984,198.006348 573.977905,199.621765 574.938293,204.298569 
	C575.238403,205.759933 575.150574,207.304489 575.486023,208.754120 
	C575.843445,210.298538 576.792297,211.538910 578.555969,211.558701 
	C580.613708,211.581833 580.922913,210.035294 580.932068,208.447525 
	C580.952209,204.973160 582.789795,202.782990 585.902222,201.724701 
	C588.305786,200.907440 588.774353,199.230408 588.670593,197.058273 
	C588.564758,194.845047 589.054382,192.751404 590.060120,190.784271 
	C592.408081,186.191757 594.247009,185.927963 597.258362,190.186859 
	C599.169128,192.889236 601.028076,192.103470 603.277649,191.068527 
	C609.308289,188.294113 612.369446,189.137421 616.463440,194.549942 
	C618.411438,197.125443 619.700928,200.375916 623.001709,201.408707 
	C624.279480,200.829132 624.206970,199.986710 624.094543,199.148346 
	C623.849731,197.323364 623.308289,195.140884 625.414368,194.294403 
	C627.853821,193.313889 629.688599,195.166611 630.726929,197.000671 
	C632.521301,200.170334 633.862610,203.600052 635.336853,206.945892 
	C636.147766,208.786179 636.996216,210.563568 638.489685,211.986908 
	C640.327271,213.738205 641.921875,213.785934 643.426819,211.590088 
	C644.622986,209.844940 645.526855,207.444916 648.251831,207.995773 
	C650.943542,208.539886 650.109558,211.143845 650.673218,212.925644 
	C651.153870,214.444977 651.268738,216.322357 653.996338,216.372406 
	C654.080872,212.769363 654.382080,209.184479 659.574951,209.634689 
	C660.564819,209.720505 660.541992,207.722305 660.823303,206.611740 
	C661.125732,205.417923 661.701233,204.369980 663.110840,204.354462 
	C664.469055,204.339493 664.970825,205.454895 665.664734,206.421768 
	C670.462891,213.106888 669.226257,220.231049 666.911804,227.221588 
	C664.627014,234.122543 668.163940,239.367523 675.307556,238.974380 
	C682.401123,238.584015 684.056152,241.210129 680.952881,247.932281 
	C678.822815,252.546585 680.161682,255.137146 684.552185,254.694305 
	C687.174988,254.429779 689.351135,253.561752 687.460632,250.247437 
	C686.251709,248.127884 686.506531,246.204346 688.694458,245.183350 
	C692.530029,243.393494 694.069946,239.898636 695.832092,236.504990 
	C697.367065,233.548813 699.326111,230.689590 703.077820,231.750885 
	C706.643860,232.759674 710.004211,234.784790 709.639343,239.337479 
	C709.441956,241.800064 711.207703,242.471786 712.597046,243.492325 
	C715.106812,245.335876 715.907593,247.187576 713.188293,249.492264 
	C711.031799,251.319946 709.309692,253.232285 711.297363,256.293823 
	C713.186584,259.203766 715.577026,259.037598 718.234802,257.679321 
	C720.844849,256.345459 723.070374,257.138367 724.067261,259.581940 
	C725.689087,263.557190 728.835327,264.881195 732.572144,265.574310 
	C736.348633,266.274841 738.886108,268.037140 739.637390,272.187317 
	C740.226440,275.441559 742.993164,276.300934 745.996460,276.847412 
	C748.861145,277.368713 752.102966,277.107086 754.275452,279.715729 
	C755.263916,280.902649 756.082336,282.258057 755.581238,283.812866 
	C754.975098,285.693573 753.192017,285.427917 751.759827,285.290192 
	C748.140991,284.942078 744.780396,284.266510 742.127502,288.177704 
	C740.650940,290.354675 738.469666,288.299896 737.114746,286.886322 
	C734.281860,283.930695 732.147888,284.353119 730.048706,287.746887 
	C727.914307,291.197571 724.672058,293.600342 721.547485,296.121185 
	C717.987000,298.993652 718.429810,301.993958 722.662109,303.462616 
	C727.247803,305.053925 729.293335,308.108368 729.099487,312.869965 
	C728.903503,317.685883 730.619263,321.337250 735.509460,322.923401 
	C737.066528,323.428436 738.878784,324.404175 740.018066,322.540405 
	C741.074768,320.811798 739.284912,319.869171 738.276062,318.878998 
	C736.692993,317.325195 735.322510,315.665619 735.073242,313.386993 
	C734.905151,311.850647 735.035706,310.264709 736.742004,309.593201 
	C738.132996,309.045807 739.336426,309.600433 740.270691,310.746674 
	C743.004578,314.100861 745.673584,315.383301 748.265320,310.575256 
	C749.201477,308.838623 750.936218,308.723022 752.636597,308.823914 
	C756.428406,309.048950 757.590027,307.622955 755.886475,304.060944 
	C755.267639,302.766998 754.468750,301.375519 755.334534,299.762787 
	C757.838501,298.451416 759.550903,300.193298 761.050781,301.528931 
	C763.147400,303.395874 764.578735,303.476807 767.019714,301.734436 
	C773.393616,297.184845 780.377930,300.558716 781.423706,308.365936 
	C782.090088,313.341553 785.073975,314.659943 788.994385,311.465454 
	C791.035583,309.802246 792.585693,307.549530 794.456726,305.661316 
	C797.386841,302.704254 798.258484,304.108215 801.022766,306.855988 
	C805.615051,311.420868 801.979980,316.008423 802.743408,320.450775 
	C802.793640,320.743134 802.660522,321.284790 802.464478,321.370148 
	C796.214600,324.092529 796.909668,332.963715 789.940674,335.215820 
	C790.754700,337.171936 792.044312,337.741180 793.883789,337.078064 
	C794.662292,336.797424 795.367798,336.321198 796.130676,335.989288 
	C798.787598,334.833099 802.077881,333.375824 803.636230,336.666077 
	C805.383484,340.355408 801.725952,341.284119 799.112366,342.308899 
	C792.460571,344.917145 791.183960,351.593994 788.611084,357.000916 
	C787.426941,359.489502 790.393677,362.142242 792.713562,363.850159 
	C794.942505,365.491058 795.762512,362.688538 797.309998,362.144165 
	C802.781860,360.219208 807.807617,354.613647 814.241821,360.005798 
	C815.096497,360.722015 816.166504,360.174286 817.091248,359.793884 
	C820.136536,358.541199 821.995239,358.775482 822.555908,362.764160 
	C822.911621,365.294220 825.292358,365.833618 827.700073,364.899872 
	C829.404236,364.238983 831.389648,362.001862 832.709167,364.934113 
	C833.911560,367.606201 833.012390,370.267120 830.504395,371.944336 
	C829.459595,372.643036 828.032166,372.888733 826.740540,373.074066 
	C824.237305,373.433228 822.047119,373.525360 821.168396,376.860626 
	C820.437439,379.634979 817.350098,379.216522 815.137756,378.752472 
	C811.414246,377.971466 809.836182,378.817017 807.554260,382.503082 
	C805.148499,386.389130 801.276001,390.387695 796.364014,392.142151 
	C794.700684,392.736267 792.946533,393.227814 792.541870,394.941254 
	C791.209412,400.582642 785.173401,404.041870 785.506165,410.499176 
	C785.557739,411.498962 784.065430,412.653961 783.154602,413.611145 
	C781.518188,415.330841 780.466309,417.054565 782.246094,419.298615 
	C783.746155,421.190002 785.391357,422.256165 787.789307,420.692444 
	C788.748413,420.066986 789.898621,419.343964 790.995239,420.300903 
	C792.297791,421.437347 792.380615,423.175171 791.666260,424.453674 
	C789.474670,428.375763 789.187744,431.837433 793.768311,434.680817 
	C790.617004,437.772430 787.537964,436.759583 784.726318,435.566528 
	C781.118896,434.035797 778.142517,433.781616 775.460632,437.303711 
	C773.855530,439.411743 771.333313,439.951263 768.675842,439.684784 
	C766.494446,439.466034 764.333862,439.455017 762.696960,441.767181 
	C764.287476,444.416992 766.664612,443.319397 768.831299,443.120056 
	C770.158875,442.997894 771.720154,442.766907 772.369568,444.238007 
	C773.171326,446.054199 771.658203,447.170624 770.379028,447.729828 
	C767.423035,449.022064 765.931519,450.905273 766.220093,454.262970 
	C766.399536,456.350739 765.119812,457.711578 763.037292,458.095734 
	C761.084473,458.455994 759.955994,457.316833 759.065979,455.748535 
	C755.032837,448.642212 753.973206,449.510529 747.159607,454.138031 
	C743.166626,456.849915 736.476318,455.961395 731.006104,455.913940 
	C729.228943,455.898529 730.183838,452.700287 729.549255,450.474670 
	C724.110901,450.028900 718.592773,448.949188 713.508972,452.745697 
	C712.207642,453.717529 710.550354,454.764557 709.030457,454.805389 
	C696.214294,455.149902 687.529541,464.897827 676.372253,468.977814 
	C673.930664,469.870605 673.148865,471.586487 674.161621,474.560364 
	C675.347961,478.043854 673.260437,483.037842 679.917480,483.224792 
	C677.971130,486.572632 675.552063,486.529175 673.340942,486.090912 
	C670.584839,485.544617 667.982422,484.162140 665.220703,483.717499 
	C659.039062,482.722229 652.763000,482.857574 646.539185,481.441681 
	C643.049133,480.647797 639.317932,483.705444 636.196228,485.865356 
	C629.183411,490.717499 621.841370,491.300476 613.828552,488.955048 
	C603.616638,485.966003 593.350891,483.252838 582.757202,481.703827 
	C565.477539,479.177246 545.593445,490.243439 538.334778,506.070740 
	C532.550232,518.683838 528.447632,531.411743 529.188660,545.488953 
	C529.733521,555.839111 532.327881,565.493164 537.363586,574.525330 
	C539.823425,578.937378 543.430237,581.654297 548.200500,583.548035 
	C557.530212,587.251465 567.073181,588.174927 577.016663,588.187988 
	C613.008423,588.235168 649.001587,588.540466 684.990540,589.023560 
	C721.970764,589.519958 758.948914,590.234680 795.923340,591.062134 
	C813.074402,591.445923 830.215454,592.298950 847.358398,593.002930 
	C849.903992,593.107422 852.552185,593.063293 854.958130,594.436584 
	C853.949829,596.468994 852.283203,596.097595 850.875427,596.146362 
	C831.566345,596.815857 812.260315,597.719177 792.944824,598.030212 
	C735.793091,598.950684 678.633911,599.144043 621.476440,599.541443 
	C582.150513,599.814819 542.825500,599.901245 503.000000,600.049072 
M744.030640,391.408234 
	C742.293884,392.404999 740.228638,393.323517 740.505981,395.739655 
	C740.850830,398.744202 744.421570,396.820648 746.119019,399.510040 
	C736.148987,406.300598 727.205017,414.834015 713.805054,414.994293 
	C719.994080,417.178864 726.087097,419.187103 732.411499,417.248230 
	C735.933655,416.168427 739.127563,416.143768 742.642822,417.090302 
	C748.397095,418.639801 757.957214,411.453033 758.184570,405.553345 
	C758.244202,404.004639 757.912781,402.449341 759.728333,401.806671 
	C761.443115,401.199768 762.517090,402.354309 763.546753,403.504700 
	C765.614136,405.814392 768.060181,406.551788 770.550110,404.411682 
	C772.802002,402.476227 774.354248,399.871368 772.592285,396.936523 
	C771.133484,394.506561 771.437317,392.353943 772.046631,389.824982 
	C773.553101,383.571869 770.115173,379.779999 763.752380,380.241882 
	C760.374878,380.487091 757.744873,382.088196 755.533386,384.467651 
	C752.534058,387.694763 749.237366,390.381836 744.030640,391.408234 
M522.780457,443.164978 
	C521.398804,445.324249 519.430969,446.896484 517.316650,448.219971 
	C509.853668,452.891357 507.549286,460.166473 507.376862,468.311310 
	C507.216156,475.902924 511.439514,478.292603 517.994080,474.344788 
	C525.868530,469.601990 529.741394,461.889862 532.417786,453.483459 
	C533.019043,451.594910 532.577454,449.808777 530.360596,449.034943 
	C528.111389,448.249817 527.922119,446.691132 528.516785,444.634399 
	C528.924866,443.222870 529.350952,441.483704 527.683472,440.595184 
	C525.539551,439.452820 524.312744,441.016083 522.780457,443.164978 
M703.506714,389.180573 
	C704.435547,392.111084 705.903320,393.936401 709.510010,393.859894 
	C713.344116,393.778564 717.047302,396.493866 721.102112,394.417267 
	C722.011536,393.951538 722.753418,395.020630 723.397217,395.873260 
	C726.308533,399.728943 728.371887,399.781250 730.416321,395.489990 
	C732.438171,391.246124 735.620361,388.355225 739.085022,385.461090 
	C742.925293,382.253174 742.616821,380.236603 738.287170,376.978577 
	C736.312500,377.327698 736.222351,379.423126 735.047058,380.509460 
	C733.191895,382.224121 730.569702,382.839752 729.536743,380.512360 
	C727.900513,376.825745 725.532166,376.885773 722.129639,376.669128 
	C714.933167,376.210968 705.549194,381.637451 703.506714,389.180573 
M514.007507,432.866699 
	C507.718842,432.850677 507.718872,432.850677 510.160583,426.807251 
	C511.049744,424.606537 505.218445,416.429291 502.753601,416.519989 
	C502.167297,416.541595 501.393372,416.890045 501.055389,417.346832 
	C499.017395,420.101105 496.398468,421.993805 493.203369,423.193848 
	C492.011932,423.641388 491.228882,424.752808 491.613586,425.973999 
	C494.221375,434.251556 496.636108,442.619934 501.023865,450.270081 
	C507.007721,446.520782 511.566681,442.393524 514.181091,438.312775 
	C515.205505,436.713837 516.886230,435.061371 514.007507,432.866699 
M442.327545,367.077240 
	C443.873962,368.828644 445.235504,370.665192 445.922119,372.970428 
	C447.518127,378.328644 453.569275,383.204559 458.849762,383.543304 
	C460.324554,383.637939 461.819092,383.392029 461.791412,381.706696 
	C461.729675,377.948090 462.240967,373.507233 458.822632,371.151917 
	C451.703979,366.247040 452.171600,356.451447 445.442047,351.468231 
	C445.332703,351.387207 445.274628,351.159210 445.284760,351.005890 
	C445.612427,346.063324 442.048035,344.788086 438.468689,343.460846 
	C435.746338,347.528778 435.403381,354.054047 437.909363,357.462463 
	C439.922821,360.201019 441.173920,363.188385 442.327545,367.077240 
M669.120483,451.789886 
	C667.144226,451.353851 665.927185,452.545044 664.990173,453.944641 
	C662.679016,457.397156 659.872253,457.474884 656.347900,455.848297 
	C650.157227,452.991150 641.297974,457.480042 638.783936,464.709076 
	C642.047913,466.668884 645.457642,466.086182 648.777405,465.064911 
	C651.993286,464.075562 655.208191,463.443756 658.575134,463.652893 
	C669.122498,464.307953 678.269958,459.663818 687.634888,455.899170 
	C689.815247,455.022675 691.333191,453.467255 690.171936,450.826141 
	C689.416382,449.107788 689.510986,446.381622 686.885620,446.443207 
	C684.406311,446.501434 682.752747,448.432312 681.669434,450.556458 
	C681.248657,451.381531 681.474304,452.515137 681.292297,453.486969 
	C680.578430,457.298492 678.636597,458.142303 675.261108,456.213593 
	C673.235107,455.055939 672.155212,452.685852 669.120483,451.789886 
M400.670959,395.175842 
	C395.446838,394.648743 390.934296,391.547150 385.816833,390.134064 
	C384.573669,400.183929 386.572784,402.991974 395.093048,404.442871 
	C399.988190,405.276398 404.679901,404.001190 409.429016,403.267029 
	C415.266968,402.364563 421.234222,400.268250 426.334076,405.440033 
	C426.779297,405.891479 427.916229,405.909454 428.517181,405.052734 
	C426.244263,397.451813 424.969910,396.422089 417.418030,396.411346 
	C412.091644,396.403778 406.768066,396.472870 400.670959,395.175842 
M572.475220,466.753174 
	C576.893921,466.045746 581.338013,465.465607 585.722778,464.588379 
	C588.901611,463.952362 591.666626,463.051208 590.700684,458.456299 
	C589.613098,453.282410 582.909058,449.363251 578.382385,452.032745 
	C574.676270,454.218323 571.127014,456.703064 567.682495,459.287415 
	C565.477173,460.941986 563.188477,462.730713 562.770081,465.978058 
	C565.516113,468.709778 568.631958,467.321533 572.475220,466.753174 
M435.642761,416.499756 
	C428.506073,411.833252 420.347839,410.726685 412.178436,410.614502 
	C408.532623,410.564484 404.309998,410.838135 400.666931,414.115936 
	C404.207794,415.211426 403.540375,420.351074 405.888031,420.281769 
	C410.554688,420.144073 415.079559,421.946167 419.539490,421.235962 
	C424.888855,420.384094 430.067322,418.458954 435.642761,416.499756 
M491.751160,465.294830 
	C491.081604,452.130066 484.910309,440.988800 478.984253,429.757324 
	C481.505768,454.524353 485.186157,466.027740 491.795013,470.184540 
	C491.795013,468.731171 491.795013,467.414612 491.751160,465.294830 
M784.847717,378.875977 
	C778.623962,379.022980 774.808472,384.149597 776.580444,390.994812 
	C777.346680,393.954681 777.213684,398.537445 780.999207,399.248657 
	C784.611023,399.927277 785.583496,395.546295 787.572876,393.280853 
	C788.645874,392.058899 789.242310,390.418671 790.055725,388.968292 
	C790.578308,388.036591 790.923279,386.770691 790.061890,386.212982 
	C787.465332,384.531799 787.348999,381.321899 784.847717,378.875977 
M499.065491,402.343903 
	C499.940491,405.203430 500.007263,405.394958 503.758057,404.087189 
	C508.144196,402.557861 511.226410,402.247833 513.765381,407.560303 
	C516.682373,413.663971 519.560608,413.706482 524.980896,409.373260 
	C524.753540,407.698761 524.453735,405.863770 522.661133,405.276703 
	C518.920227,404.051666 516.703918,401.439850 514.654419,398.223114 
	C512.757263,395.245575 509.688416,394.506287 506.317719,396.153198 
	C503.577820,397.491913 501.283966,399.369446 499.065491,402.343903 
M379.052124,419.114441 
	C371.293396,416.506348 365.805542,408.388947 356.092651,409.326355 
	C356.930237,413.317413 360.688385,415.609985 360.190247,419.633392 
	C360.132416,420.100616 361.968231,421.430786 362.379730,421.231689 
	C367.170563,418.913452 371.227112,421.820648 375.563263,422.783600 
	C377.208313,423.148895 378.958008,422.686157 380.302856,421.641510 
	C381.629608,420.610931 380.319000,420.028717 379.052124,419.114441 
M229.105103,387.043823 
	C228.537506,387.441254 226.436096,387.728760 228.503647,388.541473 
	C230.754135,389.426086 233.373932,389.345215 235.818878,389.765808 
	C243.053360,391.010376 250.853073,389.821655 257.574707,395.663055 
	C257.615814,391.309143 260.353455,389.739197 263.388733,387.806549 
	C260.624817,386.634460 258.505096,387.061279 256.415436,387.281128 
	C252.420883,387.701324 248.462082,387.824890 244.722244,386.000092 
	C239.561935,383.482239 234.538635,383.387573 229.105103,387.043823 
M353.857086,397.851379 
	C358.186859,401.084564 363.324768,400.069366 368.155457,400.391296 
	C370.296417,400.533966 370.570068,398.794189 370.052887,396.820374 
	C369.408478,394.361053 362.797668,386.514557 359.835510,385.151764 
	C359.628052,385.056366 359.249756,385.332184 358.497559,385.591949 
	C358.829102,388.871704 358.078613,391.879517 354.646454,393.676605 
	C353.480743,394.287018 353.107300,395.774689 353.857086,397.851379 
M618.390625,480.165771 
	C621.831177,481.003998 625.346436,481.328125 628.672363,480.040894 
	C631.485107,478.952301 636.131104,478.689392 636.042358,475.249664 
	C635.941589,471.339630 631.133423,472.320923 628.328979,471.508728 
	C624.763794,470.476227 621.411377,470.689911 619.922607,475.184540 
	C618.998047,477.975677 616.697571,477.860138 614.157593,477.484070 
	C610.966187,477.011597 608.239746,474.339813 604.093689,475.573517 
	C608.570923,478.293243 613.311584,478.425507 618.390625,480.165771 
M741.628723,442.042053 
	C744.906372,443.608582 747.463562,442.063690 749.723755,439.957336 
	C752.507812,437.362793 753.642700,433.468689 756.793396,431.038513 
	C758.284241,429.888550 757.221680,427.471954 755.910217,427.478516 
	C752.285156,427.496613 747.149902,427.022705 745.395691,429.097321 
	C742.750122,432.226074 740.499817,436.743530 741.628723,442.042053 
M581.498474,432.294220 
	C582.557007,429.743195 586.142944,429.620056 586.984802,426.575562 
	C584.334839,424.085876 582.352112,425.761322 580.798767,427.745453 
	C575.885620,434.021210 571.126587,440.417969 566.334351,446.787781 
	C565.852234,447.428680 565.364685,448.179962 566.216248,449.308289 
	C572.703369,445.220062 580.731079,442.668030 581.498474,432.294220 
M667.486694,426.939301 
	C666.989929,429.002716 667.527954,430.726105 669.662659,431.278168 
	C671.906128,431.858429 674.088318,431.089935 675.389771,429.209564 
	C676.689819,427.331207 677.212158,424.895020 678.584351,423.090393 
	C681.443848,419.329681 679.224060,417.939301 676.299133,416.577759 
	C672.666504,419.373230 669.633179,422.308655 667.486694,426.939301 
M259.892487,374.605560 
	C264.225464,375.886444 268.409668,376.969513 271.738708,380.762878 
	C273.416107,382.674255 277.211517,383.701141 280.331360,381.453583 
	C276.530273,376.357758 269.299194,373.840820 259.892487,374.605560 
M566.862610,432.248077 
	C568.976685,429.115784 572.358826,426.742645 573.092102,422.458282 
	C564.508850,424.052887 560.805054,428.936096 563.347412,434.858490 
	C565.000183,435.095001 565.535400,433.654663 566.862610,432.248077 
M406.583130,388.042175 
	C409.114410,388.928314 411.564178,390.641327 414.480133,389.060028 
	C411.521210,382.700073 407.072052,380.856689 400.981537,383.340790 
	C401.578705,385.985443 403.967865,386.618378 406.583130,388.042175 
M289.218811,402.246124 
	C295.342896,403.323914 299.550262,397.798645 305.429993,398.034668 
	C298.081482,394.403168 293.871979,395.469543 289.218811,402.246124 
M209.239471,359.321899 
	C209.341217,359.598602 209.442947,359.875275 209.544708,360.152008 
	C209.678391,360.062531 209.842758,359.998505 209.941254,359.879852 
	C211.826294,357.608459 214.963104,355.502502 215.302261,353.016052 
	C215.884750,348.745636 217.199600,346.540802 222.554123,347.201385 
	C218.223801,344.651855 214.851486,341.656616 211.644714,346.791534 
	C216.233307,350.244171 216.273987,351.627411 211.791428,355.298828 
	C210.628708,356.251160 209.379730,357.093658 209.239471,359.321899 
M333.702057,412.465546 
	C331.763763,413.170166 331.967407,414.099243 333.364502,415.243286 
	C336.101654,417.484619 339.130157,417.016205 342.297272,416.394592 
	C341.641998,414.628510 341.041229,413.009308 340.498718,411.547119 
	C338.149261,411.144470 336.269592,411.898254 333.702057,412.465546 
M413.283112,427.815704 
	C412.720154,431.314697 415.688660,431.978394 417.751373,432.327911 
	C420.098053,432.725616 421.994598,431.187195 422.274933,428.335846 
	C419.438629,426.741943 416.618103,427.528900 413.283112,427.815704 
M331.645752,378.638794 
	C332.502502,378.181244 333.359253,377.723694 334.298981,377.221863 
	C331.896362,374.860809 330.149902,373.892914 327.490265,374.310364 
	C328.580322,376.740967 326.361542,378.565277 326.488983,380.819702 
	C329.220795,382.986725 330.672241,382.210144 331.645752,378.638794 
M533.922913,479.673981 
	C532.400452,481.541962 530.151550,482.827057 528.906311,485.706726 
	C532.451538,485.706390 534.578186,483.772980 536.818787,482.246857 
	C537.880615,481.523560 539.130310,480.472656 538.118408,478.962036 
	C536.854980,477.075958 535.573853,478.275696 533.922913,479.673981 
M473.465820,379.165039 
	C472.917084,376.415894 472.241882,373.769073 468.760284,373.017365 
	C469.091858,378.574707 469.849152,379.644135 473.465820,379.165039 
M750.305237,376.115326 
	C752.285400,379.127777 753.939148,377.131012 755.258301,375.577301 
	C756.260132,374.397461 755.643066,372.794037 754.312134,372.316467 
	C751.629578,371.353943 750.377808,372.809998 750.305237,376.115326 
M669.589661,444.274017 
	C670.683594,443.432983 672.378845,442.975861 671.669189,440.764191 
	C669.457275,440.289062 666.782043,439.544464 665.794189,442.224670 
	C665.015381,444.337769 667.139832,444.752472 669.589661,444.274017 
M492.627258,395.467590 
	C496.383179,397.579987 497.577972,396.753082 497.928406,391.584137 
	C495.358307,391.402802 493.654297,392.486328 492.627258,395.467590 
M464.036438,394.631287 
	C468.483398,396.293793 468.742615,396.061493 468.007172,390.722931 
	C466.434998,391.107147 464.797516,391.300446 463.338135,391.915894 
	C461.485474,392.697266 462.548431,393.600677 464.036438,394.631287 
M382.111053,413.285522 
	C383.174957,413.585938 384.294769,414.251862 385.262207,412.596985 
	C383.307098,409.139801 379.521027,410.014282 376.376648,409.281006 
	C378.086609,410.511505 379.796600,411.742004 382.111053,413.285522 
M717.890564,443.274323 
	C719.272644,443.082397 720.829712,443.466949 722.046814,441.896851 
	C720.685547,440.665192 719.988647,438.682800 717.479675,438.581909 
	C716.558960,440.111206 714.358948,441.430359 717.890564,443.274323 
M458.545715,416.040924 
	C456.895660,414.861206 455.908264,415.636139 454.969238,417.149628 
	C456.410522,418.789673 457.989258,419.712189 460.535065,420.049683 
	C459.830505,418.551208 459.356506,417.543152 458.545715,416.040924 
z"/>
<path fill="#000000" opacity="1.000000" stroke="none" 
	d="
M700.296753,616.394531 
	C692.002991,616.673157 684.183289,617.053589 676.359436,617.188782 
	C580.742065,618.841492 485.117004,618.497253 389.494598,617.982056 
	C353.854462,617.790100 318.216309,616.884888 282.582489,616.075378 
	C272.272614,615.841187 261.979950,614.823364 251.681839,614.128113 
	C250.234634,614.030334 248.625671,614.169434 247.683960,612.577148 
	C248.264679,610.603333 249.986160,610.954407 251.359589,610.877502 
	C263.326782,610.208069 275.290863,609.281738 287.268250,609.035889 
	C316.910645,608.427307 346.562286,608.276550 376.205353,607.694336 
	C454.165680,606.163269 532.131531,606.751831 610.093994,607.114990 
	C648.064758,607.291870 686.033447,608.239807 723.998840,609.040649 
	C735.808411,609.289734 747.604431,610.192627 759.405273,610.822205 
	C760.696411,610.891113 762.112488,610.760376 762.990295,612.082458 
	C760.663452,614.244141 757.933472,614.657532 743.215210,615.220398 
	C736.061768,615.493958 728.913940,615.936707 721.758850,616.134949 
	C714.765320,616.328735 707.765869,616.308655 700.296753,616.394531 
z"/>
</svg>